<?xml version="1.0" standalone="no"?>
<!DOCTYPE svg PUBLIC "-//W3C//DTD SVG 20010904//EN"
 "http://www.w3.org/TR/2001/REC-SVG-20010904/DTD/svg10.dtd">
<svg version="1.0" xmlns="http://www.w3.org/2000/svg"
 width="403.000000pt" height="403.000000pt" viewBox="0 0 403.000000 403.000000"
 preserveAspectRatio="xMidYMid meet">
<metadata>
Created by potrace 1.14, written by Peter Selinger 2001-2017
</metadata>
<g transform="translate(0.000000,403.000000) scale(0.100000,-0.100000)"
fill="#000000" stroke="none">
<path d="M0 3052 c0 -691 3 -981 11 -989 8 -8 8 -13 0 -17 -11 -7 -17 -326 -6
-326 16 0 83 41 104 64 14 14 34 26 46 26 23 0 55 -28 55 -48 0 -7 14 -25 30
-40 17 -16 30 -35 30 -42 0 -6 14 -25 31 -41 37 -34 34 -53 -9 -57 -26 -3 -40
4 -74 37 l-41 41 -89 -3 -88 -2 2 -379 3 -380 30 -8 c17 -4 50 -10 74 -13 25
-3 49 -9 54 -14 11 -11 -26 -33 -45 -26 -7 2 -37 6 -65 9 l-53 4 0 -239 0
-240 25 -23 c14 -13 25 -28 25 -35 0 -6 10 -11 23 -12 12 0 16 -3 9 -6 -22 -9
-13 -33 13 -33 29 0 31 -6 11 -26 -8 -8 -22 -11 -30 -8 -9 3 -16 1 -16 -5 0
-6 -14 -11 -32 -11 -48 0 -26 -12 26 -14 32 -1 46 2 46 11 0 7 7 13 16 13 8 0
12 -5 9 -10 -4 -6 5 -10 21 -10 l27 0 -27 -25 c-15 -14 -34 -25 -42 -25 -8 0
-31 -7 -50 -15 -33 -13 -35 -13 -30 1 4 10 1 14 -6 12 -18 -6 -22 -49 -6 -59
10 -7 10 -9 1 -9 -17 0 -17 -27 0 -33 9 -4 9 -6 0 -6 -12 -1 -19 -41 -7 -41
12 0 33 28 26 35 -4 5 -1 5 6 1 7 -5 11 -14 8 -22 -5 -12 55 -14 389 -14 347
0 394 2 389 15 -4 8 -18 18 -33 21 -55 12 -66 17 -83 34 -9 10 -23 20 -30 23
-33 11 33 25 137 27 l50 1 -27 15 c-16 8 -28 19 -28 25 0 6 -4 7 -10 4 -6 -3
-7 1 -4 9 7 18 30 21 39 6 3 -5 12 -7 20 -4 17 7 64 -26 65 -43 0 -7 11 -13
23 -13 13 0 32 -9 41 -19 20 -22 54 -33 62 -20 3 5 0 9 -5 9 -6 0 -11 5 -11
11 0 6 6 9 14 6 8 -3 17 -1 20 6 2 7 5 1 5 -13 1 -15 6 -31 13 -38 9 -9 9 -12
0 -12 -7 0 -12 5 -12 10 0 6 -4 10 -10 10 -5 0 -10 -7 -10 -15 0 -8 -4 -15
-10 -15 -25 0 -7 -28 21 -34 17 -3 685 -6 1483 -6 1373 1 1450 2 1430 18 -11
9 -37 30 -57 46 -33 26 -35 31 -22 46 8 9 12 25 8 38 -4 17 -2 21 10 16 9 -3
13 -12 10 -20 -3 -9 2 -14 16 -14 26 0 73 -29 66 -40 -3 -4 2 -10 10 -14 13
-5 15 16 15 148 0 114 -3 155 -12 158 -7 3 -13 13 -13 24 0 10 -6 18 -13 16
-15 -3 -35 15 -45 41 -9 24 2 44 15 26 6 -10 7 -7 3 9 -4 12 -2 22 4 22 6 0 8
6 5 14 -4 11 0 13 15 9 12 -3 21 -9 21 -14 0 -5 5 -9 10 -9 6 0 10 76 10 209
0 188 -2 210 -17 215 -13 5 -14 9 -5 15 19 12 4 38 -29 51 -24 10 -27 15 -18
27 10 11 8 15 -9 19 -12 4 -18 12 -16 19 3 7 -3 16 -13 19 -10 3 -29 25 -42
49 -17 31 -38 51 -70 68 -55 29 -60 35 -53 61 4 18 1 20 -26 16 -22 -3 -32 0
-32 9 0 14 -44 46 -69 50 -29 4 -63 28 -72 50 -5 13 -16 23 -25 23 -31 0 -153
64 -154 81 0 20 -17 34 -51 43 -15 3 -29 14 -32 25 -3 12 -16 20 -38 24 -19 3
-49 8 -66 12 -26 5 -33 3 -33 -10 0 -8 -12 -20 -28 -26 -15 -5 -34 -12 -42
-15 -13 -4 -13 -6 0 -14 8 -5 31 -12 52 -15 43 -8 58 -32 26 -44 -21 -8 -20
-10 20 -34 23 -15 48 -38 57 -51 16 -24 11 -56 -9 -56 -6 0 -17 -4 -25 -9 -12
-8 -12 -12 -2 -25 8 -10 9 -16 3 -16 -6 0 -16 8 -21 18 -10 16 -12 16 -26 -2
-10 -13 -12 -23 -5 -32 8 -8 2 -17 -22 -31 -53 -31 -68 -34 -85 -17 -14 13
-17 13 -35 -3 -31 -28 -38 -2 -38 136 0 112 -1 123 -15 105 -14 -18 -14 -16
-9 16 6 33 6 34 -11 18 -17 -16 -19 -16 -31 7 -15 29 0 113 22 122 22 8 16 57
-11 88 -34 40 -35 71 -3 135 15 30 30 66 33 80 5 22 2 26 -22 28 -21 2 -24 -1
-15 -10 14 -14 16 -64 3 -73 -6 -3 -13 11 -17 32 -4 21 -11 41 -16 44 -6 4
-11 19 -11 35 -1 16 -8 35 -14 42 -17 18 -16 43 2 68 8 12 12 24 8 27 -3 4 -7
23 -7 44 -5 99 -7 119 -15 132 -8 12 -12 12 -25 2 -8 -7 -20 -10 -26 -6 -10 6
-13 -10 -11 -50 1 -16 -1 -15 -10 5 -6 14 -8 42 -5 63 4 20 2 37 -3 37 -11 0
-21 -35 -21 -77 0 -46 -18 -41 -26 7 -4 22 -10 40 -15 40 -7 0 -22 -33 -24
-52 -1 -14 -15 -21 -15 -7 -1 10 -5 8 -15 -5 -15 -20 -15 -20 -16 0 0 18 -1
18 -9 -1 -12 -29 -12 -83 1 -87 11 -4 2 -38 -11 -38 -4 0 -15 18 -24 40 -9 22
-20 40 -25 40 -4 0 -7 10 -6 23 1 12 0 15 -2 7 -2 -9 -17 -21 -33 -27 -21 -8
-30 -18 -30 -33 0 -12 -4 -18 -10 -15 -5 3 -10 1 -10 -6 0 -8 -7 -6 -19 5 -23
21 -41 14 -41 -15 0 -30 -28 -23 -32 9 -2 16 -8 26 -16 24 -8 -1 -16 7 -19 18
-7 28 -20 25 -53 -10 -35 -37 -40 -37 -40 -1 0 36 -15 48 -29 24 -9 -16 -12
-16 -20 -3 -9 12 -11 12 -17 -3 -4 -10 -12 -16 -19 -14 -13 6 -15 -4 -16 -78
0 -27 -4 -65 -9 -83 -7 -27 -6 -33 5 -28 8 2 16 0 19 -7 2 -7 5 -2 5 11 1 12
-4 22 -11 22 -6 0 -9 3 -5 6 3 3 15 3 26 -1 15 -5 21 -15 21 -38 l1 -32 14 25
c8 14 15 34 15 45 1 20 1 20 9 0 5 -11 14 -20 22 -20 10 0 14 -14 13 -57 -1
-32 2 -55 6 -53 4 2 5 -6 3 -18 -3 -12 0 -53 5 -91 9 -66 8 -68 -15 -77 -12
-5 -23 -11 -23 -15 0 -3 7 -4 15 0 8 3 15 2 15 -3 0 -5 -12 -12 -26 -15 -27
-7 -28 -33 -2 -28 9 1 18 -5 22 -13 5 -15 1 -18 -42 -31 -6 -2 -12 -11 -11
-21 0 -16 1 -16 8 1 5 12 10 16 14 9 4 -6 4 -19 0 -29 -5 -13 -3 -16 9 -11 10
3 19 0 22 -9 8 -20 -11 -54 -28 -54 -21 0 -75 -60 -69 -76 4 -12 0 -15 -22
-14 -13 1 -34 -30 -30 -42 4 -9 -4 -19 -20 -26 -16 -7 -23 -17 -19 -24 5 -8 2
-9 -9 -5 -11 4 -17 1 -17 -8 0 -16 -38 -41 -57 -37 -7 2 -13 -4 -13 -13 0 -8
6 -15 13 -15 8 0 7 -3 -3 -9 -18 -12 -33 -3 -26 15 4 9 -4 18 -20 24 -36 14
-39 13 -54 -17 -14 -27 -66 -83 -77 -83 -3 0 -3 15 1 33 4 23 3 28 -4 17 -9
-13 -11 -13 -20 0 -8 13 -11 13 -19 1 -6 -10 -18 -11 -37 -6 -16 4 -62 8 -102
10 -40 2 -86 10 -101 18 -17 8 -33 11 -38 6 -7 -7 -109 0 -148 11 -25 6 -55
-1 -55 -14 0 -29 -21 -27 -100 7 -44 19 -82 32 -84 28 -2 -3 -6 -23 -10 -44
-9 -48 -23 -39 -32 21 -8 57 -21 92 -32 92 -10 0 -10 -3 12 -135 8 -49 18
-135 22 -190 4 -71 12 -109 25 -131 23 -38 25 -58 3 -26 -8 12 -19 20 -24 17
-12 -8 -23 38 -16 63 4 11 -3 40 -14 66 -11 26 -20 60 -21 74 -1 24 -2 24 -9
-7 -4 -18 -6 -86 -3 -151 l6 -117 76 -23 c111 -35 131 -40 181 -44 100 -10
128 -16 184 -41 52 -23 61 -24 80 -11 20 12 25 12 47 -5 15 -11 19 -19 10 -19
-8 0 -11 -3 -8 -7 13 -12 202 -32 307 -32 58 0 137 4 175 8 39 5 85 6 103 3
l33 -4 -21 -23 c-32 -34 -135 -49 -294 -42 -127 6 -254 31 -280 57 -5 5 -21
10 -34 10 -13 0 -32 5 -43 11 -11 5 -37 9 -57 7 l-37 -3 32 -15 c18 -8 32 -21
30 -29 -6 -41 447 -65 674 -35 129 16 139 19 175 50 l39 33 -72 1 c-105 0
-109 21 -7 36 95 13 323 106 404 164 15 11 35 20 43 20 20 0 75 29 84 44 5 7
18 18 31 25 12 6 22 22 23 34 0 12 3 16 6 9 2 -6 10 -9 16 -5 7 4 5 -2 -2 -13
-33 -43 -78 -87 -104 -101 -16 -8 -27 -17 -24 -19 3 -3 19 2 36 11 17 8 31 13
31 11 0 -8 -132 -79 -146 -79 -8 0 -12 -3 -9 -6 4 -3 -11 -11 -32 -17 -37 -12
-35 -12 38 -12 86 1 161 -24 155 -51 -13 -67 -55 -124 -111 -151 -24 -12 -60
-32 -79 -45 -18 -12 -62 -35 -97 -51 -35 -15 -73 -35 -84 -45 -33 -29 -144
-77 -228 -98 -238 -61 -546 -50 -762 28 -33 12 -92 32 -131 44 -46 14 -82 33
-102 52 -16 17 -51 46 -78 65 -26 19 -70 59 -99 88 -28 28 -53 52 -56 52 -2 0
-5 -12 -6 -27 -2 -38 65 -156 84 -149 8 3 12 2 8 -3 -3 -5 2 -17 11 -25 20
-20 41 -22 24 -2 -10 13 -8 13 14 3 21 -10 23 -13 8 -18 -16 -6 -16 -7 1 -14
10 -4 20 -5 24 -2 3 3 35 -14 70 -38 36 -25 72 -45 79 -45 8 0 14 -5 14 -11 0
-18 -74 -2 -133 28 -68 34 -134 89 -154 127 -13 25 -17 27 -27 15 -6 -8 -20
-14 -31 -14 -14 0 -19 -6 -17 -17 2 -10 -3 -18 -10 -18 -9 0 -9 -3 2 -10 13
-8 12 -10 -2 -10 -10 0 -18 -4 -18 -9 0 -14 -29 -21 -36 -9 -4 7 -3 8 4 4 7
-4 12 -2 12 3 0 6 -4 11 -9 11 -17 0 -80 45 -81 56 0 7 -11 15 -25 18 -28 7
-80 70 -70 86 4 6 -4 10 -17 10 -13 0 -29 5 -35 11 -16 16 17 41 73 57 56 16
75 15 68 -3 -8 -19 0 -19 21 1 11 11 19 13 28 6 7 -5 26 -13 43 -16 30 -7 32
-5 41 33 9 32 8 38 -3 34 -8 -3 -21 0 -29 7 -11 9 -20 8 -42 -8 -42 -29 -107
-34 -135 -11 -24 21 -65 22 -61 1 3 -13 -16 -16 -41 -6 -9 3 -14 10 -11 14 3
5 1 11 -5 15 -5 3 -10 1 -10 -4 0 -6 -11 -11 -25 -11 -14 0 -25 5 -25 11 0 6
7 9 15 5 8 -3 15 -1 15 4 0 6 -7 10 -16 10 -8 0 -12 5 -9 11 4 6 -2 13 -14 16
-12 3 -21 10 -21 17 0 6 -18 20 -40 30 -22 11 -40 20 -40 22 0 20 17 34 42 34
17 0 27 -4 23 -10 -4 -6 18 -11 57 -12 50 -1 54 -2 20 -5 -64 -6 -48 -27 21
-27 50 -1 56 1 51 17 -4 12 0 17 14 17 11 0 22 -5 24 -11 3 -9 9 -9 24 -1 13
7 25 7 30 2 8 -8 48 -15 109 -20 15 -1 12 -4 -10 -11 -16 -4 -39 -6 -52 -3
-32 9 -29 -2 8 -20 24 -12 35 -13 49 -4 14 9 21 8 35 -6 10 -9 20 -15 23 -12
11 12 1 169 -13 182 -20 20 -79 18 -99 -5 -17 -19 -66 -18 -66 1 0 18 -42 48
-67 48 -13 0 -33 5 -44 11 -11 6 -33 11 -49 11 -17 1 -32 8 -35 17 -5 12 -8
13 -14 3 -4 -7 -33 -16 -64 -19 -32 -3 -57 -10 -57 -15 0 -4 -22 -8 -50 -7
-35 2 -50 6 -50 16 0 7 7 16 15 19 8 4 15 12 15 20 0 13 -33 12 -77 -1 -7 -2
-15 0 -18 5 -4 6 -2 10 3 10 6 0 12 6 15 13 3 9 -6 14 -27 15 -17 2 -32 7 -34
12 -2 6 -13 10 -23 10 -47 0 -123 63 -113 93 4 12 1 18 -8 16 -20 -3 -51 12
-70 36 -23 27 -23 42 0 22 13 -12 28 -15 55 -10 49 8 58 20 47 67 -11 48 -33
71 -85 89 -44 15 -57 44 -31 66 12 11 30 10 93 -2 72 -14 142 -22 281 -33 32
-2 70 -13 95 -28 45 -26 83 -26 122 0 14 10 38 12 88 7 57 -5 69 -4 65 8 -3 9
-56 27 -140 48 -121 30 -137 36 -142 57 -4 13 -17 29 -30 36 -22 12 -116 121
-116 134 0 3 -11 19 -25 36 -27 32 -33 58 -13 58 38 0 323 -74 343 -90 17 -13
106 -28 193 -34 l82 -5 0 37 c0 20 -7 46 -15 56 -8 11 -15 27 -14 35 0 12 3
10 9 -4 7 -16 9 -13 9 16 1 19 -5 41 -11 48 -11 11 -10 12 1 6 15 -9 15 -2
-15 540 -8 149 -14 281 -13 295 0 14 -5 44 -11 68 -15 52 3 132 31 139 10 3
15 11 13 17 -3 7 15 33 39 59 86 89 225 162 405 212 48 14 101 29 117 34 17 6
54 13 84 17 43 6 53 4 49 -7 -3 -8 -11 -14 -19 -15 -8 0 -16 -2 -19 -3 -5 -2
-66 -9 -120 -14 -14 -1 -30 -6 -36 -10 -7 -3 -51 -20 -99 -36 -98 -34 -135
-55 -135 -76 0 -17 25 -20 35 -6 3 6 13 9 23 9 9 -1 42 6 72 15 78 22 118 28
125 16 4 -5 19 1 36 15 16 14 46 28 67 32 20 4 45 11 54 15 18 10 68 -8 68
-23 0 -5 -5 -6 -11 -2 -6 3 -15 1 -19 -6 -4 -7 -28 -14 -52 -17 l-45 -5 2 -38
c2 -30 -1 -39 -16 -43 -21 -6 -26 12 -8 30 7 7 5 15 -6 27 -22 22 -35 20 -35
-4 0 -11 -7 -20 -15 -20 -9 0 -15 -6 -14 -12 3 -24 -3 -53 -8 -40 -2 6 -14 12
-25 12 -17 0 -18 2 -8 15 14 17 8 31 -9 20 -6 -3 -8 -11 -5 -17 4 -6 -1 -8
-15 -3 -19 6 -21 4 -16 -18 4 -15 2 -28 -6 -33 -9 -5 -11 -2 -6 9 5 13 -2 19
-26 25 -39 11 -42 9 -28 -15 6 -10 11 -12 11 -5 0 15 30 16 30 0 0 -6 -3 -9
-6 -5 -4 3 -13 0 -21 -8 -8 -8 -23 -15 -34 -15 -10 0 -19 -5 -19 -11 0 -5 -4
-7 -10 -4 -5 3 -10 2 -10 -4 0 -5 6 -12 12 -14 10 -4 10 -6 0 -6 -7 -1 -10 -5
-7 -11 4 -6 -2 -7 -17 -1 -13 5 -22 14 -21 20 4 14 0 14 -32 -1 -32 -15 -33
-30 0 -18 14 5 25 6 25 1 0 -5 -8 -12 -17 -15 -15 -6 -15 -8 -3 -16 9 -6 19
-5 24 0 13 13 36 13 36 0 0 -5 -6 -7 -14 -4 -8 3 -16 -3 -19 -15 -5 -21 -5
-21 21 -3 45 31 53 34 50 20 -2 -7 4 -13 12 -13 8 0 15 7 16 15 2 35 5 40 18
40 8 0 22 8 32 18 10 9 20 17 23 17 3 1 16 4 29 9 16 5 29 2 47 -12 l25 -20
-30 -10 c-33 -12 -39 -26 -14 -36 22 -8 26 -8 19 4 -3 6 1 7 9 4 11 -4 15 -17
13 -40 -2 -36 -14 -45 -23 -19 -9 21 -30 19 -30 -4 0 -10 7 -18 16 -17 10 1
14 -7 13 -22 -2 -16 1 -21 10 -16 8 5 8 2 -2 -9 -17 -21 -41 -22 -41 -1 0 9 5
12 13 8 6 -4 2 4 -11 17 -21 22 -24 23 -33 7 -6 -11 -22 -18 -39 -18 -17 0
-30 -4 -30 -9 0 -4 11 -7 26 -5 20 2 23 0 14 -11 -7 -8 -8 -20 -4 -26 5 -8 3
-9 -7 -3 -17 10 -70 6 -84 -7 -5 -5 -19 -9 -32 -9 -13 0 -23 -5 -23 -11 0 -6
7 -9 14 -6 10 4 13 1 9 -9 -5 -13 -27 -18 -63 -15 -12 1 -12 -1 2 -9 22 -13
62 2 91 35 l22 26 1 -24 c2 -21 -6 -28 -45 -43 l-46 -18 38 -9 c34 -8 52 -27
25 -27 -6 0 -8 -3 -5 -7 6 -6 37 24 87 85 6 7 8 17 5 22 -8 13 17 8 28 -5 5
-5 6 2 3 18 -6 25 0 32 21 25 4 -2 8 -7 9 -13 3 -27 5 -29 14 -15 6 9 10 10
10 3 0 -7 -7 -16 -16 -21 -11 -6 -13 -12 -6 -16 6 -4 19 5 28 19 9 14 24 25
33 25 13 0 13 -2 2 -9 -8 -5 -12 -18 -8 -31 3 -12 3 -20 1 -17 -3 3 -20 -1
-37 -8 -18 -7 -41 -11 -52 -9 -28 5 -52 -4 -59 -22 -5 -12 -2 -13 16 -3 18 10
24 8 36 -7 12 -16 14 -16 9 -2 -3 10 -2 20 3 23 5 3 12 -6 16 -21 5 -18 9 -22
15 -13 4 8 3 16 -3 20 -5 3 7 10 29 14 53 10 68 24 46 41 -17 12 -17 13 -1 14
22 0 31 15 23 41 -6 17 -9 19 -16 8 -5 -9 -11 -10 -18 -4 -6 6 -4 15 5 23 11
10 17 9 32 -6 17 -17 20 -18 31 -3 6 9 9 10 5 2 -5 -11 0 -13 25 -9 17 2 31 1
31 -4 0 -4 7 -8 16 -8 10 0 14 6 11 14 -3 8 -1 17 6 20 7 3 0 5 -14 3 -14 -1
-34 4 -43 12 -9 8 -19 11 -23 7 -3 -3 -13 4 -21 15 -12 18 -13 23 -1 30 10 6
5 9 -16 9 -23 0 -26 3 -15 10 8 5 26 7 40 4 20 -5 22 -3 10 6 -11 9 -12 13 -2
17 7 2 19 12 28 20 12 13 13 18 3 24 -8 4 -16 4 -19 0 -12 -19 -49 -31 -72
-22 l-23 8 25 9 c14 4 28 8 32 9 4 0 13 6 20 13 11 11 10 12 -6 6 -13 -5 -17
-4 -13 3 4 6 0 13 -8 17 -8 3 -15 2 -15 -3 0 -4 -11 -6 -25 -3 -29 5 -34 22
-6 22 10 0 39 11 66 25 36 20 46 22 41 10 -3 -9 -2 -13 4 -10 6 3 10 14 10 23
0 13 2 14 9 3 7 -11 9 -11 14 0 4 12 7 11 16 -1 9 -12 11 -11 11 8 0 22 12 27
53 24 9 -1 17 3 17 10 0 6 8 4 19 -6 18 -16 32 -16 96 1 17 5 18 4 6 -10 -7
-9 -11 -23 -8 -31 3 -8 -1 -17 -9 -20 -8 -3 -12 -2 -9 3 3 5 1 12 -5 16 -5 3
-10 -2 -10 -12 0 -10 -9 -24 -20 -31 -11 -6 -31 -30 -45 -52 -14 -22 -30 -40
-36 -40 -8 0 -7 5 1 15 10 12 10 15 -1 16 -8 0 -4 4 9 9 22 10 31 40 11 40 -6
0 -9 -6 -6 -13 3 -7 -3 -13 -12 -14 -9 -1 -25 -3 -36 -6 -11 -2 -25 0 -32 5
-7 6 -18 6 -29 0 -15 -8 -15 -10 1 -16 14 -5 15 -9 5 -21 -7 -9 -10 -19 -6
-23 4 -4 14 2 22 12 16 22 55 30 47 10 -2 -7 5 -15 16 -19 25 -8 27 -21 4 -29
-15 -6 -15 -8 -3 -16 13 -9 13 -10 0 -11 -8 -1 -25 -3 -37 -4 -19 -2 -21 1
-12 16 5 11 6 19 2 20 -4 0 -18 2 -31 3 -13 2 -25 -1 -28 -6 -3 -4 2 -8 10 -8
9 0 16 -9 16 -20 0 -11 5 -20 11 -20 5 0 7 -5 4 -10 -3 -6 6 -15 20 -20 28
-11 49 -5 40 11 -4 5 -1 9 4 9 6 0 11 -9 11 -20 0 -15 7 -20 29 -20 17 0 33 5
36 11 5 6 12 4 21 -8 17 -23 17 -30 -1 -37 -8 -3 -14 -2 -14 2 3 20 -3 22 -17
7 -12 -11 -20 -13 -27 -6 -14 14 -60 15 -52 1 3 -5 12 -7 20 -3 18 6 20 -13 3
-21 -10 -5 -10 -7 0 -12 6 -3 10 -10 7 -14 -9 -14 18 -50 37 -50 24 0 23 17
-2 25 -26 8 -26 25 1 25 11 0 18 -4 14 -9 -3 -6 3 -15 14 -21 14 -7 22 -7 26
0 5 8 11 7 21 -1 8 -6 14 -8 14 -4 0 4 -8 14 -17 21 -14 10 -15 15 -6 25 10
10 15 9 28 -1 12 -10 15 -10 15 4 0 9 5 16 10 16 6 0 10 -4 10 -10 0 -14 43
-13 57 1 9 9 11 7 8 -7 -2 -11 -4 -19 -5 -19 -1 0 -3 -8 -5 -17 -2 -10 1 -18
6 -18 6 0 8 -4 4 -9 -3 -5 -1 -12 4 -16 6 -3 8 -12 4 -20 -4 -11 2 -15 18 -14
18 0 20 2 8 7 -18 8 -11 45 10 50 8 2 11 -3 8 -12 -4 -10 0 -14 13 -13 13 1
16 5 10 11 -17 17 -11 34 10 29 22 -6 28 12 8 21 -7 4 -3 4 9 2 12 -2 24 1 27
8 2 6 5 7 5 1 1 -15 -11 -30 -34 -43 -12 -7 -15 -12 -6 -12 8 0 33 16 57 35
49 41 54 42 54 15 0 -11 5 -20 11 -20 6 0 9 7 6 14 -4 10 -1 13 9 9 8 -3 12
-8 9 -11 -8 -8 66 -35 99 -35 15 0 33 6 38 14 8 11 9 10 4 -3 -5 -17 8 -32 29
-33 34 -1 117 -30 122 -41 3 -8 16 -14 29 -14 14 0 27 -6 30 -14 3 -8 19 -16
35 -20 17 -3 28 -10 24 -16 -8 -13 -7 -13 60 10 32 11 67 18 76 15 10 -4 30 2
44 11 30 20 43 13 20 -10 -19 -19 -7 -21 16 -3 9 7 14 19 11 27 -3 8 -1 12 3
8 8 -7 34 19 35 35 0 4 -21 -4 -47 -18 -59 -31 -67 -31 -61 0 5 25 -7 36 -14
14 -3 -9 -10 -9 -26 0 -13 7 -32 9 -42 6 -12 -4 -20 -2 -20 4 0 6 -10 11 -23
11 -52 0 -144 66 -123 87 9 9 -15 34 -25 27 -5 -3 -9 2 -9 11 0 13 -2 14 -14
3 -8 -7 -10 -14 -5 -16 5 -2 9 -9 9 -15 0 -6 -11 0 -25 13 -17 16 -22 27 -15
34 16 16 12 26 -9 26 -11 0 -23 5 -27 12 -5 8 -2 9 9 5 10 -3 17 -2 17 3 0 5
9 14 21 20 19 10 20 10 10 -8 -8 -16 -7 -21 5 -26 22 -9 31 -7 16 2 -10 7 -8
14 7 31 11 13 25 20 30 16 6 -3 11 -1 11 5 0 6 5 8 10 5 6 -3 10 -2 10 3 0 5
10 7 23 5 15 -3 26 3 35 16 7 12 8 21 3 21 -5 0 -11 -5 -13 -11 -2 -7 -13 -9
-26 -5 -18 6 -20 11 -12 26 15 28 12 33 -14 28 -17 -3 -23 0 -22 11 0 9 -5 15
-11 13 -7 -1 -13 2 -13 8 0 5 7 10 15 10 8 0 15 -4 15 -10 0 -5 13 -7 32 -3
21 4 29 3 25 -5 -5 -6 0 -8 13 -5 11 3 20 0 20 -6 0 -6 -6 -11 -14 -11 -14 0
-30 -29 -21 -38 3 -3 5 1 5 8 0 7 3 10 6 7 4 -3 16 0 28 8 24 17 56 20 56 4 0
-5 5 -7 10 -4 6 3 10 -3 10 -14 0 -12 4 -21 10 -21 5 0 7 7 3 16 -5 14 -2 16
23 10 16 -5 36 -9 44 -11 8 -2 20 -4 25 -5 6 -1 17 -2 25 0 11 1 10 4 -5 11
-16 8 -15 9 10 5 17 -3 39 -8 49 -12 14 -5 17 -4 12 4 -10 16 17 15 33 0 10
-11 11 -10 6 5 -9 23 0 22 25 -5 35 -38 22 -5 -21 52 -23 30 -50 58 -60 62
-10 4 -19 15 -19 24 0 10 -5 14 -14 11 -8 -3 -20 1 -26 9 -7 8 -20 14 -30 14
-10 0 -23 7 -30 15 -7 8 -18 15 -25 15 -7 0 -30 8 -51 17 -22 9 -46 18 -54 19
-8 1 -33 7 -55 12 -22 6 -60 16 -85 23 -25 6 -54 15 -65 20 -11 4 -27 10 -35
12 -8 3 -2 6 13 6 32 1 193 -38 278 -67 134 -47 289 -141 289 -176 0 -7 11
-18 26 -24 16 -8 36 -34 56 -78 l30 -65 -17 -152 c-9 -83 -21 -159 -26 -169
-5 -9 -9 -31 -9 -48 0 -18 -4 -29 -10 -25 -5 3 -10 0 -11 -7 -1 -7 -2 -29 -4
-48 -2 -19 1 -43 7 -53 8 -16 7 -17 -11 -8 -28 15 -41 14 -41 -5 0 -9 7 -14
18 -12 25 4 42 -10 41 -35 -1 -20 -2 -20 -9 3 -6 21 -8 22 -14 8 -9 -20 5 -50
19 -40 18 13 45 70 45 96 0 30 5 31 129 16 88 -12 149 -31 194 -64 22 -16 25
-22 14 -33 -10 -11 -31 -10 -117 3 -58 8 -122 19 -143 24 -60 13 -87 3 -87
-33 0 -20 9 -24 98 -40 215 -40 251 -49 360 -83 125 -40 129 -42 306 -219 133
-132 198 -215 169 -215 -15 0 -113 53 -129 71 -9 10 -24 19 -32 19 -13 0 -79
36 -92 49 -5 6 -69 37 -130 63 -19 9 -63 30 -96 47 -71 36 -103 40 -59 8 16
-12 53 -45 81 -74 36 -36 63 -54 88 -58 45 -9 66 -31 37 -40 -12 -3 -21 -10
-21 -14 0 -17 14 -19 36 -4 23 14 26 14 42 -4 9 -11 71 -46 137 -78 66 -32
129 -66 140 -76 11 -9 37 -24 58 -33 l37 -15 0 163 c0 116 -4 166 -12 174 -10
10 -10 14 0 21 8 5 12 22 10 42 -2 26 -8 35 -25 37 -12 2 -27 10 -33 18 -11
12 -7 14 24 14 l36 0 0 63 c0 36 -5 68 -12 75 -9 9 -9 12 0 12 9 0 12 211 12
920 l0 920 -2015 0 -2015 0 0 -978z m1936 233 c-28 -26 -32 -40 -16 -50 6 -3
10 -2 10 4 0 6 7 8 16 4 12 -4 15 -2 12 8 -3 8 2 20 9 28 12 11 40 13 146 8
112 -6 205 -19 187 -28 -18 -8 -120 -4 -120 5 0 6 -5 4 -10 -4 -5 -8 -10 -10
-10 -4 0 6 -16 11 -37 10 -21 -1 -53 2 -72 5 -18 4 -45 3 -58 -2 -22 -8 -24
-13 -19 -44 4 -19 4 -50 1 -69 -6 -27 -11 -33 -26 -29 -10 3 -19 12 -19 20 0
10 -4 11 -19 4 -16 -9 -18 -8 -14 12 4 22 4 22 -11 2 -29 -38 -37 -45 -49 -45
-7 1 -5 6 6 14 9 7 17 23 17 35 0 11 3 21 8 21 4 0 13 14 21 31 13 29 10 43
-10 45 -5 1 -13 2 -19 3 -5 0 -10 6 -10 11 0 6 15 10 34 10 19 0 38 5 41 10 3
6 13 10 22 10 12 0 9 -7 -11 -25z m164 -97 c0 -12 -3 -18 -7 -15 -3 4 -12 2
-20 -5 -19 -15 -27 -4 -13 21 14 28 40 27 40 -1z m160 12 c0 -5 -4 -10 -10
-10 -5 0 -10 5 -10 10 0 6 5 10 10 10 6 0 10 -4 10 -10z m-80 -32 c0 -5 -9 -8
-19 -8 -11 0 -22 3 -24 8 -3 4 6 7 19 7 13 0 24 -3 24 -7z m310 -30 c0 -4 7
-5 16 -1 14 5 46 -5 142 -48 23 -10 53 -19 65 -19 13 0 36 -14 53 -31 26 -28
26 -30 6 -19 -31 15 -38 7 -23 -27 l13 -28 -21 22 c-12 12 -28 20 -36 17 -8
-4 -17 1 -21 10 -3 9 -10 13 -15 10 -5 -3 -9 0 -9 6 0 7 -7 9 -16 6 -10 -4
-13 -2 -8 6 5 8 2 9 -9 5 -13 -5 -17 -1 -17 16 0 16 -6 23 -19 23 -12 0 -17
-5 -13 -14 4 -12 2 -12 -17 -1 -11 8 -21 17 -21 21 0 5 -10 8 -22 8 -41 0 -69
12 -64 26 3 7 1 16 -5 19 -5 4 -7 10 -4 15 6 10 45 -9 45 -22z m-67 -12 c-4
-6 -8 -5 -11 2 -2 7 -9 9 -15 5 -7 -4 -6 1 2 11 11 13 16 14 22 4 4 -6 5 -17
2 -22z m-68 -26 c-3 -6 1 -10 9 -10 9 0 16 -7 16 -15 0 -10 10 -15 27 -15 20
0 24 -3 16 -11 -6 -6 -27 -11 -47 -11 -20 0 -33 -4 -30 -9 8 -14 -10 -11 -32
6 -25 19 -38 19 -31 1 4 -10 1 -13 -8 -10 -8 3 -13 11 -12 17 1 7 -9 11 -26
10 -24 -2 -27 0 -17 13 16 18 10 18 -25 0 -24 -13 -31 -13 -51 1 -29 18 -31
27 -5 18 11 -3 25 1 34 10 14 13 16 13 20 -3 4 -13 5 -11 6 6 1 23 26 31 34
10 4 -10 8 -9 16 2 9 13 11 13 11 -2 0 -9 6 -19 13 -22 6 -3 1 -3 -12 0 -14 4
-21 2 -17 -4 3 -5 15 -12 26 -15 17 -4 20 -1 18 21 -3 23 1 27 25 30 15 2 27
9 27 15 0 7 5 4 11 -6 5 -9 7 -22 4 -27z m-605 16 c0 -3 -4 -8 -10 -11 -5 -3
-10 -1 -10 4 0 6 5 11 10 11 6 0 10 -2 10 -4z m-265 -56 c-3 -5 -10 -10 -16
-10 -5 0 -9 5 -9 10 0 6 7 10 16 10 8 0 12 -4 9 -10z m-85 -25 c0 -12 -29 -3
-34 10 -4 13 -2 14 14 5 11 -6 20 -13 20 -15z m820 -1 c0 -2 -7 -4 -15 -4 -8
0 -15 4 -15 10 0 5 7 7 15 4 8 -4 15 -8 15 -10z m277 10 c-3 -3 -12 -4 -19 -1
-8 3 -5 6 6 6 11 1 17 -2 13 -5z m117 -34 c4 0 4 5 0 12 -4 7 -3 8 4 4 7 -4
12 -14 12 -22 0 -19 -46 -18 -54 2 -11 29 -6 37 12 21 10 -10 22 -17 26 -17z
m66 -10 c0 -5 -2 -10 -4 -10 -3 0 -8 5 -11 10 -3 6 -1 10 4 10 6 0 11 -4 11
-10z m-610 -20 c-8 -5 -22 -10 -30 -10 -13 0 -13 1 0 10 8 5 22 10 30 10 13 0
13 -1 0 -10z m250 -10 c0 -5 -5 -10 -11 -10 -5 0 -7 5 -4 10 3 6 8 10 11 10 2
0 4 -4 4 -10z m-570 -30 c0 -11 -7 -20 -16 -20 -8 0 -13 -4 -9 -9 3 -6 -4 -15
-15 -21 -21 -11 -21 -11 -5 14 10 14 22 26 27 26 6 0 8 7 4 15 -3 8 -1 15 4
15 6 0 10 -9 10 -20z m663 -27 c-7 -2 -19 -2 -25 0 -7 3 -2 5 12 5 14 0 19 -2
13 -5z m-72 -36 c-10 -9 -11 -8 -5 6 3 10 9 15 12 12 3 -3 0 -11 -7 -18z
m-381 3 c0 -6 -15 -9 -36 -7 -21 3 -41 -1 -49 -9 -21 -22 -30 -16 -10 6 19 21
95 29 95 10z m415 -10 c3 -5 1 -10 -4 -10 -6 0 -11 5 -11 10 0 6 2 10 4 10 3
0 8 -4 11 -10z m-625 -30 c0 -5 -7 -10 -16 -10 -8 0 -12 5 -9 10 3 6 10 10 16
10 5 0 9 -4 9 -10z m64 -9 c3 -5 -1 -11 -9 -14 -9 -4 -12 -1 -8 9 6 16 10 17
17 5z m56 -7 c0 -8 -4 -12 -10 -9 -5 3 -10 10 -10 16 0 5 5 9 10 9 6 0 10 -7
10 -16z m-20 -24 c0 -6 -8 -10 -17 -8 -12 2 -17 -3 -15 -14 2 -10 -1 -18 -6
-18 -16 0 -21 27 -9 39 14 14 47 14 47 1z m146 -15 c-3 -14 -1 -23 5 -20 5 4
9 13 9 21 0 8 5 14 10 14 6 0 10 -5 10 -11 0 -5 4 -8 9 -5 5 3 11 -1 15 -9 8
-22 -30 -38 -72 -30 -33 6 -35 8 -19 20 18 13 24 31 7 20 -11 -7 -14 8 -3 18
16 17 33 6 29 -18z m-66 -9 c0 -3 -4 -8 -10 -11 -5 -3 -10 -1 -10 4 0 6 5 11
10 11 6 0 10 -2 10 -4z m-140 -20 c0 -3 -4 -8 -10 -11 -5 -3 -10 -1 -10 4 0 6
5 11 10 11 6 0 10 -2 10 -4z m662 -28 c-7 -7 -12 -8 -12 -2 0 14 12 26 19 19
2 -3 -1 -11 -7 -17z m-1134 0 c-2 -6 -10 -14 -16 -16 -7 -2 -10 2 -6 12 7 18
28 22 22 4z m-43 -57 c-3 -6 -11 -8 -17 -5 -6 4 -5 9 3 15 16 10 23 4 14 -10z
m1702 -263 c-3 -8 -6 -5 -6 6 -1 11 2 17 5 13 3 -3 4 -12 1 -19z m523 -143 c0
-19 -4 -19 -43 1 -42 22 -44 24 -27 34 18 11 70 -15 70 -35z m-2881 -71 c12
-11 -22 -26 -91 -40 -75 -17 -75 -17 -106 6 -39 29 -40 37 -4 43 29 5 194 -3
201 -9z m1701 -40 c0 -8 -5 -12 -10 -9 -6 4 -8 11 -5 16 9 14 15 11 15 -7z
m-140 -35 c0 -5 -4 -9 -10 -9 -5 0 -10 7 -10 16 0 8 5 12 10 9 6 -3 10 -10 10
-16z m-1943 0 c35 1 50 -12 30 -26 -6 -5 -46 -17 -87 -27 -75 -17 -75 -17 -93
5 -30 37 14 63 88 52 17 -2 44 -4 62 -4z m581 -34 c4 -6 19 -16 35 -22 30 -14
35 -39 12 -69 -19 -25 -19 -51 1 -62 12 -6 13 -11 5 -16 -21 -14 -50 5 -81 52
-16 26 -50 60 -75 75 -25 16 -45 31 -45 33 0 19 135 27 148 9z m-342 -97 c44
-22 92 -64 82 -73 -6 -6 -145 -42 -212 -56 -35 -6 -59 -6 -83 3 -39 14 -39 17
-13 51 13 16 16 28 10 32 -38 24 28 50 159 64 8 0 33 -9 57 -21z m1891 -105
c-16 -16 -17 -16 -17 3 0 26 11 37 24 24 7 -7 5 -16 -7 -27z m1585 -2 c26 -13
44 -39 34 -49 -8 -7 -76 47 -76 59 0 6 3 9 8 7 4 -2 19 -10 34 -17z m-1580
-53 c-9 -9 -15 -9 -24 0 -9 9 -7 12 12 12 19 0 21 -3 12 -12z m3 -38 c-3 -5
-13 -10 -21 -10 -8 0 -14 5 -14 10 0 6 9 10 21 10 11 0 17 -4 14 -10z m35
-147 c0 -24 -4 -43 -10 -43 -5 0 -10 7 -10 15 0 8 -4 15 -9 15 -17 0 -19 42
-3 59 22 22 32 8 32 -46z m490 -162 c0 -21 -16 -2 -25 29 -7 24 -7 24 9 5 8
-11 16 -27 16 -34z m170 -320 c0 -5 -12 -8 -26 -8 -18 0 -22 2 -13 8 18 11 39
11 39 0z m-140 -136 c-7 -9 -15 -13 -18 -10 -3 2 1 11 8 20 7 9 15 13 18 10 3
-2 -1 -11 -8 -20z m-2340 -41 c0 -2 -9 -4 -20 -4 -11 0 -20 4 -20 9 0 5 9 7
20 4 11 -3 20 -7 20 -9z m2410 -24 c0 -5 -2 -10 -4 -10 -3 0 -8 5 -11 10 -3 6
-1 10 4 10 6 0 11 -4 11 -10z m620 -97 c3 -3 -1 -8 -7 -10 -7 -3 -13 -11 -13
-18 0 -9 -11 -13 -30 -13 -36 1 -41 18 -4 18 14 0 23 4 19 10 -3 6 -22 10 -41
10 -19 0 -34 4 -34 9 0 10 100 5 110 -6z m-2340 -39 c36 -18 96 -45 134 -60
66 -27 78 -47 14 -25 -17 6 -43 11 -57 12 -21 0 -22 2 -8 7 13 6 -4 15 -63 37
-44 16 -80 33 -80 38 0 4 -4 5 -10 2 -5 -3 -10 1 -10 10 0 9 3 15 8 13 4 -1
36 -17 72 -34z m-1070 -116 c61 -26 105 -38 139 -38 29 0 32 -2 21 -15 -7 -8
-20 -16 -29 -16 -9 -1 -3 -4 13 -8 16 -3 31 -12 34 -20 3 -9 -2 -11 -17 -6
-23 7 -26 -1 -11 -25 5 -8 12 -11 16 -7 4 4 13 2 20 -3 8 -8 17 -6 29 6 23 23
45 3 24 -22 -8 -10 -9 -15 -4 -12 6 4 21 0 35 -8 24 -13 24 -13 3 -14 -12 0
-25 -5 -28 -10 -5 -8 -11 -8 -20 0 -13 11 -51 10 -70 -2 -16 -9 -55 10 -55 27
0 12 6 15 20 10 16 -5 20 -2 20 14 0 14 -6 21 -20 21 -11 0 -20 -4 -20 -10 0
-5 -8 -10 -17 -10 -15 0 -13 4 7 21 l25 21 -30 -6 c-25 -4 -33 0 -41 17 -5 12
-16 21 -23 19 -8 -2 -27 0 -43 3 -24 6 -27 9 -17 21 8 10 8 14 0 14 -6 0 -11
7 -11 15 0 9 -6 12 -15 9 -21 -8 -19 13 2 25 10 5 20 8 23 7 3 -2 21 -10 40
-18z m1718 -55 c-15 -2 -42 -2 -60 0 -18 2 -6 4 27 4 33 0 48 -2 33 -4z
m-1428 -158 c0 -8 8 -15 17 -15 9 0 25 -8 36 -17 12 -11 17 -12 12 -4 -6 10
-4 12 4 7 7 -5 10 -14 7 -22 -3 -8 -1 -14 3 -14 5 0 11 4 13 9 2 5 9 3 16 -5
11 -12 8 -14 -18 -14 -17 0 -29 -4 -26 -8 2 -4 -4 -9 -15 -9 -11 -1 -23 5 -26
13 -3 8 -15 14 -27 14 -17 0 -18 -2 -6 -10 13 -8 12 -11 -4 -23 -10 -7 -31
-11 -47 -9 -37 6 -40 42 -4 70 14 11 25 27 25 36 0 9 8 16 20 16 11 0 20 -7
20 -15z m-106 -70 c-4 -8 -8 -15 -10 -15 -2 0 -4 7 -4 15 0 8 4 15 10 15 5 0
7 -7 4 -15z m2361 -23 c4 -10 -2 -23 -17 -34 -27 -21 -40 -22 -55 -7 -17 17
-52 2 -46 -20 5 -21 -10 -34 -55 -49 -27 -9 -34 -9 -38 3 -5 12 -11 10 -35 -7
-21 -16 -32 -19 -40 -11 -8 8 -4 15 17 26 16 8 49 33 74 54 61 54 72 59 134
60 42 1 56 -2 61 -15z m-1719 -59 c-7 -7 -26 7 -26 19 0 6 6 6 15 -2 9 -7 13
-15 11 -17z m-478 -26 c15 0 15 -10 0 -25 -20 -20 10 -15 40 6 15 10 34 22 42
27 12 6 13 5 3 -6 -17 -18 -16 -29 3 -29 8 0 13 4 10 9 -8 12 65 20 87 9 10
-5 15 -13 12 -19 -4 -5 -2 -9 4 -9 15 0 51 -42 45 -52 -3 -4 4 -8 15 -8 12 0
21 -4 21 -10 0 -5 -14 -10 -31 -10 -20 0 -28 -4 -23 -12 5 -8 2 -9 -10 -5 -10
4 -33 7 -52 7 -19 0 -34 4 -34 10 0 5 10 9 21 7 12 -1 24 3 26 10 3 8 -6 12
-26 10 -17 -1 -31 -6 -31 -10 0 -10 -29 -41 -31 -33 -5 22 -4 34 3 54 4 13 4
22 -2 22 -6 0 -10 -7 -10 -15 0 -16 -1 -17 -42 -19 -18 -1 -28 3 -28 12 0 7
-5 10 -11 7 -13 -9 -40 25 -34 43 3 7 -2 15 -10 18 -24 10 -17 26 8 18 12 -4
28 -7 35 -7z m3229 -63 c91 -48 100 -57 85 -89 -14 -30 -18 -31 -60 -5 -26 16
-31 25 -28 45 3 17 -1 26 -13 30 -18 5 -70 55 -59 55 4 0 37 -16 75 -36z
m-3703 -139 c3 -8 1 -15 -4 -15 -6 0 -10 7 -10 15 0 8 2 15 4 15 2 0 6 -7 10
-15z m69 8 c-7 -2 -21 -2 -30 0 -10 3 -4 5 12 5 17 0 24 -2 18 -5z m-100 -19
c-3 -8 -12 -13 -20 -10 -8 3 -18 6 -21 7 -8 0 29 17 40 18 4 1 5 -6 1 -15z
m27 -58 c0 -3 -4 -8 -10 -11 -5 -3 -10 -1 -10 4 0 6 5 11 10 11 6 0 10 -2 10
-4z"/>
<path d="M1901 3213 c-1 -17 16 -25 25 -12 4 7 3 9 -4 5 -5 -3 -13 0 -15 6 -4
9 -6 10 -6 1z"/>
<path d="M2309 3093 c0 -5 -2 -16 -4 -25 -4 -23 13 -34 28 -19 9 9 8 14 -2 20
-7 5 -10 14 -7 20 4 6 2 11 -3 11 -6 0 -11 -3 -12 -7z"/>
<path d="M235 670 c-3 -5 -1 -10 4 -10 6 0 11 5 11 10 0 6 -2 10 -4 10 -3 0
-8 -4 -11 -10z"/>
<path d="M275 630 c3 -5 15 -10 26 -10 10 0 19 5 19 10 0 6 -12 10 -26 10 -14
0 -23 -4 -19 -10z"/>
<path d="M360 540 c0 -5 5 -10 10 -10 6 0 10 5 10 10 0 6 -4 10 -10 10 -5 0
-10 -4 -10 -10z"/>
<path d="M595 269 c-4 -6 -5 -12 -2 -15 2 -3 7 2 10 11 7 17 1 20 -8 4z"/>
<path d="M665 270 c3 -5 10 -10 16 -10 5 0 9 5 9 10 0 6 -7 10 -16 10 -8 0
-12 -4 -9 -10z"/>
<path d="M710 249 c0 -5 5 -7 10 -4 6 3 10 8 10 11 0 2 -4 4 -10 4 -5 0 -10
-5 -10 -11z"/>
<path d="M1410 3110 c0 -5 10 -10 23 -10 18 0 19 2 7 10 -19 13 -30 13 -30 0z"/>
<path d="M1109 3077 c-9 -7 -14 -17 -12 -23 2 -7 -8 -15 -22 -18 -41 -10 -105
-84 -120 -136 -6 -23 -5 -23 20 7 17 22 31 30 42 26 13 -5 15 -2 10 11 -4 10
-3 15 3 11 6 -3 10 0 10 8 0 8 6 17 13 20 8 3 39 21 70 41 39 25 55 41 51 51
-7 18 -43 19 -65 2z"/>
<path d="M1680 3050 c0 -5 5 -10 10 -10 6 0 10 5 10 10 0 6 -4 10 -10 10 -5 0
-10 -4 -10 -10z"/>
<path d="M1618 3043 c-10 -2 -18 -9 -18 -14 0 -5 -5 -9 -11 -9 -5 0 -8 4 -5 9
4 5 -3 7 -14 4 -16 -4 -18 -8 -9 -19 10 -12 8 -13 -6 -8 -13 5 -16 4 -11 -4
10 -16 43 -15 49 1 3 9 7 9 19 0 15 -13 28 -8 28 9 0 5 -4 7 -9 3 -5 -3 -13 0
-17 6 -5 9 1 10 20 5 19 -5 26 -3 26 9 0 15 -9 17 -42 8z"/>
<path d="M1720 3020 c0 -5 5 -10 10 -10 6 0 10 5 10 10 0 6 -4 10 -10 10 -5 0
-10 -4 -10 -10z"/>
<path d="M1649 2993 c-13 -17 -13 -17 6 -3 11 8 22 16 24 17 2 2 0 3 -6 3 -6
0 -17 -8 -24 -17z"/>
<path d="M1340 2930 c0 -5 5 -10 10 -10 6 0 10 5 10 10 0 6 -4 10 -10 10 -5 0
-10 -4 -10 -10z"/>
<path d="M2690 2933 c0 -4 4 -14 9 -22 8 -12 14 -12 33 -3 13 7 15 10 6 8 -10
-3 -24 2 -33 10 -8 9 -15 12 -15 7z"/>
<path d="M2570 2900 c0 -5 5 -10 10 -10 6 0 10 5 10 10 0 6 -4 10 -10 10 -5 0
-10 -4 -10 -10z"/>
<path d="M889 2885 c-12 -20 -1 -114 14 -130 9 -8 18 -24 22 -34 3 -10 15 -21
25 -24 11 -3 20 -10 20 -16 0 -20 -31 -11 -55 17 -20 22 -24 24 -25 10 0 -10
3 -18 8 -18 4 0 22 -14 41 -31 19 -16 41 -27 48 -25 11 4 11 1 2 -15 -6 -11
-8 -23 -5 -27 3 -3 6 -2 6 2 0 4 10 2 21 -5 15 -8 19 -8 15 0 -4 6 0 11 8 11
10 0 13 6 10 15 -4 8 -1 15 5 15 6 0 11 -4 11 -10 0 -5 5 -10 10 -10 6 0 10 9
10 20 0 11 -7 20 -15 20 -8 0 -15 5 -15 10 0 6 6 10 14 10 8 0 18 5 22 11 5 8
-2 10 -21 7 -19 -4 -35 0 -49 13 -19 19 -19 20 -2 37 17 16 18 16 11 -5 -5
-18 -3 -22 9 -17 9 3 16 12 16 20 0 8 5 14 11 14 5 0 7 5 4 10 -4 6 -2 16 4
23 6 8 6 18 0 27 -7 12 -10 11 -15 -7 -4 -13 -14 -23 -23 -23 -21 0 -49 -32
-43 -49 3 -8 -1 -12 -9 -9 -17 5 -61 90 -63 122 0 13 -4 22 -8 20 -3 -2 -8 4
-10 13 -2 10 -6 14 -9 8z m106 -225 c-3 -5 -11 -10 -16 -10 -6 0 -7 5 -4 10 3
6 11 10 16 10 6 0 7 -4 4 -10z"/>
<path d="M2546 2876 c3 -8 1 -17 -5 -21 -6 -3 -11 -10 -11 -15 0 -6 9 -2 19 7
18 15 18 43 0 43 -4 0 -6 -6 -3 -14z"/>
<path d="M1140 2870 c0 -5 5 -10 10 -10 6 0 10 5 10 10 0 6 -4 10 -10 10 -5 0
-10 -4 -10 -10z"/>
<path d="M1541 2877 c-1 -11 30 -57 38 -57 4 0 8 7 8 15 0 8 -4 15 -9 15 -5 0
-6 5 -2 12 5 7 2 9 -9 5 -9 -3 -18 -1 -21 6 -2 7 -5 8 -5 4z"/>
<path d="M1075 2860 c-3 -5 0 -10 7 -11 7 0 21 -2 31 -4 21 -4 23 11 1 19 -22
8 -32 8 -39 -4z"/>
<path d="M2461 2861 c-10 -7 -11 -13 -2 -30 12 -22 31 -29 31 -11 0 5 7 7 16
3 12 -4 15 -2 12 8 -3 8 -10 14 -17 14 -6 0 -15 5 -19 12 -5 7 -13 9 -21 4z"/>
<path d="M2960 2831 c0 -6 5 -13 10 -16 6 -3 10 1 10 9 0 9 -4 16 -10 16 -5 0
-10 -4 -10 -9z"/>
<path d="M1180 2809 c0 -7 -8 -18 -17 -26 -17 -14 -17 -14 0 -9 9 3 17 1 17
-4 0 -6 5 -10 11 -10 6 0 8 9 4 20 -3 11 -3 20 2 20 4 0 14 -9 21 -20 14 -23
21 -24 46 -5 20 15 14 37 -9 29 -8 -4 -12 -10 -9 -15 3 -5 1 -9 -5 -9 -5 0
-13 9 -16 20 -7 21 -45 28 -45 9z"/>
<path d="M2725 2800 c3 -5 8 -10 11 -10 2 0 4 5 4 10 0 6 -5 10 -11 10 -5 0
-7 -4 -4 -10z"/>
<path d="M1115 2760 c-3 -5 -1 -10 4 -10 6 0 11 5 11 10 0 6 -2 10 -4 10 -3 0
-8 -4 -11 -10z"/>
<path d="M1550 2749 c0 -5 5 -7 10 -4 6 3 10 8 10 11 0 2 -4 4 -10 4 -5 0 -10
-5 -10 -11z"/>
<path d="M1610 2750 c0 -5 -8 -10 -17 -10 -14 0 -15 -2 -5 -9 10 -6 10 -10 -3
-21 -8 -7 -15 -23 -15 -35 0 -20 5 -23 35 -23 19 0 32 4 29 9 -3 5 -14 9 -25
9 -12 0 -19 7 -19 20 0 11 5 20 10 20 6 0 10 6 10 13 0 8 10 19 23 25 l22 11
-22 0 c-13 1 -23 -3 -23 -9z"/>
<path d="M1512 2734 c-7 -8 -8 -14 -3 -14 10 0 25 19 20 25 -2 1 -10 -3 -17
-11z"/>
<path d="M1617 2705 c-4 -8 -2 -17 3 -20 6 -4 10 2 11 12 0 13 3 12 11 -7 11
-26 25 -12 14 15 -7 19 -32 19 -39 0z"/>
<path d="M1860 2710 c-12 -8 -11 -10 8 -10 12 0 22 5 22 10 0 13 -11 13 -30 0z"/>
<path d="M1847 2682 c-3 -4 3 -13 14 -20 10 -7 19 -8 19 -3 0 13 -28 33 -33
23z"/>
<path d="M2077 2674 c5 -13 2 -15 -14 -10 -14 4 -20 2 -20 -9 0 -11 7 -13 26
-8 14 3 29 8 33 10 11 6 -3 33 -18 33 -8 0 -11 -6 -7 -16z"/>
<path d="M907 2638 c10 -29 26 -51 40 -57 30 -14 66 -14 58 -1 -4 6 -10 8 -15
5 -11 -7 -32 20 -22 30 4 4 -3 2 -15 -4 -18 -9 -22 -9 -18 1 2 7 -7 27 -21 43
l-24 30 17 -47z"/>
<path d="M1518 2673 c7 -3 16 -2 19 1 4 3 -2 6 -13 5 -11 0 -14 -3 -6 -6z"/>
<path d="M1776 2663 c-5 -12 -9 -14 -14 -6 -5 8 -14 7 -32 -4 -14 -8 -17 -12
-8 -9 9 3 21 -1 27 -8 6 -7 22 -11 35 -9 21 4 24 1 23 -24 -1 -15 -6 -31 -12
-35 -6 -5 -4 -8 6 -8 8 0 20 5 25 10 12 12 44 3 44 -11 0 -5 11 -4 25 3 19 8
22 15 15 28 -8 15 -16 16 -44 10 -36 -8 -68 2 -47 14 6 4 17 4 24 0 8 -5 8 -2
-2 9 -7 9 -25 18 -40 18 -23 2 -24 2 -3 6 26 5 29 18 6 27 -21 8 -21 8 -28
-11z"/>
<path d="M2164 2665 c4 -13 2 -13 -14 -5 -24 13 -27 13 -33 -4 -4 -9 3 -14 21
-14 30 0 55 16 46 29 -9 15 -26 10 -20 -6z"/>
<path d="M1125 2660 c-3 -6 1 -7 9 -4 18 7 21 14 7 14 -6 0 -13 -4 -16 -10z"/>
<path d="M2255 2661 c-4 -7 0 -8 11 -4 12 4 15 3 10 -5 -4 -7 -2 -12 4 -12 14
0 8 22 -7 27 -6 2 -14 -1 -18 -6z"/>
<path d="M1500 2639 c-10 -19 -10 -20 9 -10 26 14 52 4 43 -17 -5 -14 -4 -15
10 -2 14 13 12 17 -14 32 -36 22 -35 22 -48 -3z"/>
<path d="M1171 2634 c-11 -13 -15 -14 -23 -2 -7 10 -8 8 -4 -5 3 -10 6 -21 6
-24 0 -2 7 3 16 12 12 11 25 14 43 10 25 -6 25 -6 6 9 -25 19 -27 19 -44 0z"/>
<path d="M1460 2640 c0 -5 5 -10 11 -10 5 0 7 5 4 10 -3 6 -8 10 -11 10 -2 0
-4 -4 -4 -10z"/>
<path d="M1650 2643 c0 -7 -8 -13 -17 -13 -14 0 -14 -3 -5 -12 10 -10 15 -10
22 2 5 8 12 11 16 7 4 -4 -1 -14 -12 -22 -18 -14 -18 -14 7 -15 15 0 33 7 40
17 12 14 12 16 -1 11 -8 -2 -22 5 -32 16 -10 12 -17 16 -18 9z"/>
<path d="M2175 2618 c-4 -15 -8 -18 -12 -10 -4 10 -8 10 -19 1 -20 -17 9 -43
42 -36 24 4 25 3 10 -12 -14 -13 -20 -14 -37 -3 -30 19 -35 7 -6 -13 24 -15
27 -15 52 1 14 9 28 14 32 10 3 -3 0 -6 -8 -6 -11 0 -11 -2 1 -10 23 -15 26
-12 24 18 -1 16 -7 26 -14 24 -7 -1 -18 2 -26 9 -7 6 -17 8 -23 5 -5 -3 -7 3
-4 13 3 11 12 22 22 24 11 3 10 5 -5 6 -14 1 -24 -7 -29 -21z"/>
<path d="M2236 2621 c-4 -7 -5 -15 -2 -18 9 -9 19 4 14 18 -4 11 -6 11 -12 0z"/>
<path d="M1181 2607 c-9 -12 -7 -16 11 -20 29 -8 36 0 17 19 -14 13 -17 13
-28 1z"/>
<path d="M1280 2610 c0 -5 -7 -10 -15 -10 -8 0 -15 -4 -15 -10 0 -5 6 -10 14
-10 27 0 45 12 39 26 -6 16 -23 19 -23 4z"/>
<path d="M1409 2615 c-3 -2 -22 -6 -42 -8 -44 -5 -62 -17 -26 -17 19 0 21 -2
9 -10 -8 -5 -11 -13 -6 -17 4 -4 13 -1 19 8 7 9 22 19 35 23 12 4 22 12 22 17
0 10 -4 12 -11 4z"/>
<path d="M2285 2610 c3 -5 8 -10 11 -10 2 0 4 5 4 10 0 6 -5 10 -11 10 -5 0
-7 -4 -4 -10z"/>
<path d="M1104 2596 c20 -16 20 -16 0 -16 -11 0 -26 6 -34 13 -12 10 -12 9 -1
-5 10 -13 10 -22 1 -39 -10 -17 -9 -20 2 -17 7 3 26 1 42 -3 21 -6 32 -5 38 4
13 20 9 40 -7 33 -8 -3 -15 -1 -15 4 0 6 5 10 12 10 19 0 -3 17 -32 24 -24 7
-24 6 -6 -8z"/>
<path d="M1500 2604 c0 -10 28 -33 33 -27 3 3 0 12 -8 19 -14 15 -25 18 -25 8z"/>
<path d="M2260 2601 c0 -6 4 -13 10 -16 6 -3 7 1 4 9 -7 18 -14 21 -14 7z"/>
<path d="M2340 2582 c0 -10 7 -19 15 -19 8 0 15 2 15 4 0 3 -7 11 -15 19 -13
14 -15 13 -15 -4z"/>
<path d="M1455 2580 c-3 -6 1 -7 9 -4 18 7 21 14 7 14 -6 0 -13 -4 -16 -10z"/>
<path d="M1955 2582 c-15 -11 -17 -32 -2 -32 7 0 13 9 14 20 2 22 2 23 -12 12z"/>
<path d="M1996 2582 c-2 -4 4 -8 14 -8 10 0 16 4 14 8 -3 4 -9 8 -14 8 -5 0
-11 -4 -14 -8z"/>
<path d="M1583 2573 c-18 -7 -16 -20 5 -27 9 -3 24 -9 32 -13 13 -5 13 -4 2
10 -11 13 -10 15 10 10 19 -4 18 -2 -6 11 -15 9 -29 16 -30 15 0 0 -7 -3 -13
-6z"/>
<path d="M1466 2553 c-6 -14 -5 -15 5 -6 7 7 10 15 7 18 -3 3 -9 -2 -12 -12z"/>
<path d="M1500 2551 c0 -6 4 -13 10 -16 6 -3 7 1 4 9 -7 18 -14 21 -14 7z"/>
<path d="M1536 2551 c-4 -7 -5 -15 -2 -18 9 -9 19 4 14 18 -4 11 -6 11 -12 0z"/>
<path d="M1183 2542 c-17 -11 25 -46 54 -47 12 0 27 -5 34 -12 6 -6 18 -9 26
-6 7 3 23 -3 35 -13 17 -15 20 -16 16 -3 -4 9 -1 16 7 16 8 0 11 -7 7 -15 -4
-11 -2 -13 9 -6 8 4 25 8 39 7 15 -1 18 0 8 3 -10 3 -18 12 -18 20 0 9 -9 14
-28 12 -27 -2 -92 21 -92 34 0 3 -8 5 -17 3 -10 -1 -22 0 -28 4 -16 9 -39 11
-52 3z"/>
<path d="M1815 2540 c3 -5 8 -10 11 -10 2 0 4 5 4 10 0 6 -5 10 -11 10 -5 0
-7 -4 -4 -10z"/>
<path d="M2108 2543 c6 -2 10 -9 7 -14 -4 -5 1 -6 9 -3 20 8 11 24 -12 23 -11
0 -12 -2 -4 -6z"/>
<path d="M2490 2540 c0 -5 5 -10 10 -10 6 0 10 5 10 10 0 6 -4 10 -10 10 -5 0
-10 -4 -10 -10z"/>
<path d="M1320 2529 c0 -5 5 -7 10 -4 6 3 10 8 10 11 0 2 -4 4 -10 4 -5 0 -10
-5 -10 -11z"/>
<path d="M1580 2530 c0 -5 5 -10 11 -10 5 0 7 5 4 10 -3 6 -8 10 -11 10 -2 0
-4 -4 -4 -10z"/>
<path d="M1735 2530 c-3 -5 3 -10 15 -10 12 0 18 5 15 10 -3 6 -10 10 -15 10
-5 0 -12 -4 -15 -10z"/>
<path d="M1915 2522 c-6 -17 3 -34 16 -27 5 4 9 -1 9 -10 0 -14 3 -14 30 2 17
10 26 19 20 21 -5 2 -10 9 -10 15 0 17 -59 15 -65 -1z"/>
<path d="M2068 2533 c7 -3 16 -2 19 1 4 3 -2 6 -13 5 -11 0 -14 -3 -6 -6z"/>
<path d="M2407 2533 c-10 -9 -9 -33 1 -33 4 0 8 9 8 20 0 23 0 22 -9 13z"/>
<path d="M1395 2520 c-3 -5 -1 -10 4 -10 6 0 11 5 11 10 0 6 -2 10 -4 10 -3 0
-8 -4 -11 -10z"/>
<path d="M1070 2510 c0 -6 7 -10 15 -10 8 0 15 2 15 4 0 2 -7 6 -15 10 -8 3
-15 1 -15 -4z"/>
<path d="M1554 2505 c4 -12 -2 -14 -29 -10 -27 3 -35 0 -35 -12 0 -11 7 -14
25 -11 14 3 25 1 25 -3 0 -5 -16 -9 -36 -9 -24 0 -34 -4 -31 -12 2 -7 10 -12
17 -10 16 4 41 -18 34 -29 -3 -5 -1 -9 5 -9 5 0 13 5 16 10 4 6 11 8 16 4 5
-3 16 0 24 6 8 6 19 9 26 5 8 -6 7 -10 -2 -16 -11 -7 -10 -9 3 -9 9 0 20 5 23
10 4 6 10 8 15 5 10 -6 25 14 16 22 -13 14 -71 9 -83 -6 -12 -14 -12 -14 -6 4
6 17 4 18 -8 8 -12 -10 -15 -8 -16 8 -1 11 2 17 7 14 5 -3 11 -1 15 5 3 5 15
10 25 10 10 0 22 5 26 12 5 8 -2 9 -24 5 -24 -5 -32 -3 -32 8 0 8 -5 15 -11
15 -6 0 -9 -7 -5 -15z"/>
<path d="M2211 2515 c0 -14 28 -50 34 -43 3 3 -3 16 -14 29 -11 13 -20 20 -20
14z"/>
<path d="M1430 2501 c0 -11 26 -22 34 -14 3 3 3 10 0 14 -7 12 -34 11 -34 0z"/>
<path d="M1750 2499 c0 -6 -7 -9 -15 -5 -18 6 -20 -5 -3 -22 8 -8 8 -15 -2
-27 -18 -21 -3 -19 27 5 14 11 22 20 17 20 -4 0 -3 5 4 12 9 9 15 8 24 -5 12
-15 15 -15 38 3 14 10 21 22 17 26 -4 4 -13 -1 -21 -11 -11 -16 -17 -17 -29
-7 -8 7 -23 9 -32 5 -13 -4 -16 -3 -11 5 4 7 2 12 -3 12 -6 0 -11 -5 -11 -11z"/>
<path d="M1996 2485 c-11 -13 -25 -21 -32 -18 -7 2 -15 0 -19 -6 -4 -7 5 -11
24 -11 20 0 31 6 33 17 3 15 4 15 21 -1 15 -15 17 -15 17 -2 0 9 5 16 11 16 6
0 9 -7 6 -15 -9 -23 10 -27 40 -10 l28 16 -26 -5 c-23 -5 -26 -3 -21 19 5 27
-7 32 -26 13 -8 -8 -15 -8 -24 -1 -10 8 -18 5 -32 -12z"/>
<path d="M1640 2489 c0 -5 5 -7 10 -4 6 3 10 8 10 11 0 2 -4 4 -10 4 -5 0 -10
-5 -10 -11z"/>
<path d="M2270 2489 c-12 -8 -12 -9 5 -7 11 1 26 -1 33 -5 6 -5 12 -4 12 1 0
6 -7 13 -16 16 -19 7 -16 8 -34 -5z"/>
<path d="M1690 2480 c0 -5 5 -10 10 -10 6 0 10 5 10 10 0 6 -4 10 -10 10 -5 0
-10 -4 -10 -10z"/>
<path d="M2460 2479 c0 -5 5 -7 10 -4 6 3 10 8 10 11 0 2 -4 4 -10 4 -5 0 -10
-5 -10 -11z"/>
<path d="M1882 2471 c-17 -10 2 -33 21 -25 9 3 17 10 17 14 0 12 -25 19 -38
11z"/>
<path d="M2175 2470 c-3 -5 -2 -10 4 -10 5 0 13 5 16 10 3 6 2 10 -4 10 -5 0
-13 -4 -16 -10z"/>
<path d="M2397 2456 c-4 -10 -1 -13 9 -9 15 6 19 23 5 23 -5 0 -11 -7 -14 -14z"/>
<path d="M1680 2431 c0 -15 18 -23 56 -23 23 0 32 -4 28 -11 -4 -8 -2 -7 7 1
18 17 56 15 63 -4 4 -10 13 -13 26 -9 11 4 20 2 20 -4 0 -6 4 -11 10 -11 5 0
7 6 4 14 -3 7 2 16 10 19 28 11 17 25 -19 24 -22 -1 -35 -6 -35 -15 0 -7 -5
-10 -10 -7 -6 4 -7 11 -4 17 5 8 -13 9 -58 6 -36 -3 -72 -1 -82 4 -10 6 -16 5
-16 -1z"/>
<path d="M1235 2410 c-10 -11 -12 -19 -5 -22 25 -8 9 -118 -18 -119 -12 0 -11
-3 6 -9 12 -5 22 -16 22 -23 0 -8 10 -22 23 -30 18 -13 19 -18 8 -25 -7 -6
-10 -15 -6 -22 6 -9 9 -9 16 1 7 11 9 10 9 -3 0 -22 -23 -23 -45 -2 -9 9 -19
14 -22 10 -4 -3 1 -12 11 -19 16 -12 17 -17 3 -70 -16 -62 -12 -72 33 -72 46
-1 89 -16 93 -33 3 -12 5 -10 6 6 0 12 7 22 15 22 8 0 21 3 30 6 12 5 16 -1
17 -22 1 -17 3 -22 6 -11 2 9 12 17 22 17 9 0 26 7 37 15 16 13 17 16 4 25
-25 16 34 12 147 -11 96 -20 103 -20 137 -4 29 14 33 20 24 34 -32 51 -167 98
-257 89 -33 -3 -41 0 -41 13 0 9 -7 20 -16 23 -11 4 -14 13 -11 27 5 19 4 20
-19 4 -28 -18 -31 -7 -9 35 16 30 9 40 -12 19 -13 -13 -36 -3 -28 12 4 5 15 9
26 9 10 0 19 4 19 10 0 6 -9 6 -26 0 -33 -13 -34 -13 -28 5 4 9 0 15 -8 15 -8
0 -23 9 -33 20 -14 15 -15 20 -4 17 8 -2 11 -2 6 0 -4 3 -4 10 -1 15 4 7 2 8
-4 4 -6 -4 -20 1 -31 11 -55 50 -74 57 -96 33z m234 -239 c8 -5 9 -11 3 -15
-6 -3 -13 -3 -16 2 -3 5 -20 7 -38 6 l-33 -3 30 8 c17 5 32 9 35 10 3 0 11 -3
19 -8z m-27 -116 c0 -5 -5 -11 -11 -13 -6 -2 -11 4 -11 13 0 9 5 15 11 13 6
-2 11 -8 11 -13z"/>
<path d="M2003 2414 c0 -16 13 -18 22 -4 4 6 23 7 45 4 21 -3 45 -2 55 3 12 7
-4 10 -53 10 -51 0 -69 -3 -69 -13z"/>
<path d="M1423 2373 c-20 -7 -15 -23 10 -32 15 -6 27 -4 39 6 15 13 18 13 30
-6 7 -12 22 -21 33 -21 18 1 19 1 3 11 -10 5 -18 17 -18 25 0 8 -5 12 -10 9
-6 -4 -17 -1 -25 5 -12 10 -15 9 -15 -5 0 -16 -2 -17 -17 -3 -10 9 -24 13 -30
11z"/>
<path d="M1564 2345 c19 -14 36 -12 36 6 0 5 -12 9 -27 9 -27 -1 -27 -1 -9
-15z"/>
<path d="M1616 2346 c3 -8 12 -12 21 -9 12 5 12 7 1 14 -20 13 -28 11 -22 -5z"/>
<path d="M1401 2324 c6 -8 18 -14 26 -14 20 0 8 16 -17 23 -17 4 -19 3 -9 -9z"/>
<path d="M1788 2333 c7 -3 16 -2 19 1 4 3 -2 6 -13 5 -11 0 -14 -3 -6 -6z"/>
<path d="M1968 2333 c7 -3 16 -2 19 1 4 3 -2 6 -13 5 -11 0 -14 -3 -6 -6z"/>
<path d="M2910 2211 c0 -16 12 -41 20 -41 4 0 5 11 2 25 -4 23 -22 36 -22 16z"/>
<path d="M2986 2183 c-6 -24 -13 -33 -29 -34 -12 0 -16 -3 -9 -6 6 -2 12 -19
13 -36 l1 -32 10 30 c5 17 14 40 20 51 5 12 8 30 6 40 -3 14 -6 10 -12 -13z"/>
<path d="M2886 2175 c-3 -9 -6 -22 -5 -28 0 -7 5 -1 10 12 5 13 8 26 5 28 -2
2 -6 -3 -10 -12z"/>
<path d="M2900 2139 c0 -5 5 -7 10 -4 6 3 10 8 10 11 0 2 -4 4 -10 4 -5 0 -10
-5 -10 -11z"/>
<path d="M1214 2112 c-15 -10 -25 -42 -13 -42 5 0 13 8 16 18 4 9 11 20 17 24
7 5 7 8 1 8 -5 0 -15 -4 -21 -8z"/>
<path d="M1110 2051 c0 -24 12 -32 30 -21 11 7 11 11 -3 24 -21 21 -27 20 -27
-3z"/>
<path d="M2918 2030 c-3 -25 -1 -49 3 -54 14 -16 21 22 12 61 l-10 38 -5 -45z"/>
<path d="M2016 1973 c-11 -11 -6 -23 9 -23 8 0 15 4 15 9 0 13 -16 22 -24 14z"/>
<path d="M1300 1936 c0 -8 5 -18 10 -21 6 -3 10 1 10 9 0 8 -4 18 -10 21 -5 3
-10 -1 -10 -9z"/>
<path d="M1354 1925 c-2 -21 1 -24 12 -14 11 9 11 15 3 25 -15 18 -14 18 -15
-11z"/>
<path d="M3368 1813 c-21 -5 -23 -19 -5 -27 8 -3 7 -9 -6 -20 -18 -14 -18 -15
5 -30 12 -8 43 -18 68 -22 25 -4 48 -11 51 -16 3 -5 18 1 33 15 l26 24 -22 16
-23 15 25 10 c24 9 23 10 -15 16 -22 4 -54 11 -71 16 -32 10 -38 11 -66 3z"/>
<path d="M3075 1790 c3 -5 11 -10 16 -10 6 0 7 5 4 10 -3 6 -11 10 -16 10 -6
0 -7 -4 -4 -10z"/>
<path d="M3300 1787 c0 -8 7 -18 16 -21 11 -4 14 -1 12 11 -4 21 -28 30 -28
10z"/>
<path d="M2962 1770 c0 -14 2 -19 5 -12 2 6 2 18 0 25 -3 6 -5 1 -5 -13z"/>
<path d="M3120 1762 c0 -16 34 -40 95 -68 60 -28 140 -78 150 -94 6 -9 60 -36
193 -96 35 -16 68 -36 73 -46 5 -10 16 -18 25 -18 8 0 27 -8 42 -19 15 -10 57
-36 94 -57 37 -22 68 -45 68 -51 0 -7 8 -13 18 -13 9 0 48 -16 85 -34 l68 -34
-3 30 c-3 26 -12 35 -65 62 -34 17 -64 39 -66 49 -3 9 -13 17 -22 17 -38 0
-135 63 -135 88 0 29 165 18 176 -13 4 -8 23 -12 60 -11 49 1 54 3 54 23 0 15
-6 23 -18 23 -10 0 -23 5 -29 11 -18 18 -153 49 -238 55 -143 9 -165 14 -187
40 -14 15 -32 24 -50 24 -15 0 -37 9 -48 20 -11 11 -28 20 -37 20 -26 1 -126
35 -181 63 -52 26 -122 43 -122 29z"/>
<path d="M2966 1627 c3 -10 9 -15 12 -12 3 3 0 11 -7 18 -10 9 -11 8 -5 -6z"/>
<path d="M1012 1360 c0 -14 2 -19 5 -12 2 6 2 18 0 25 -3 6 -5 1 -5 -13z"/>
<path d="M1230 1312 c0 -12 4 -22 9 -22 10 0 9 26 -2 36 -4 4 -7 -2 -7 -14z"/>
<path d="M1265 1280 c2 -31 15 -37 15 -7 0 15 -4 27 -8 27 -5 0 -8 -9 -7 -20z"/>
<path d="M3040 1260 c0 -5 5 -10 10 -10 6 0 10 5 10 10 0 6 -4 10 -10 10 -5 0
-10 -4 -10 -10z"/>
<path d="M415 1040 c3 -5 13 -10 21 -10 8 0 14 5 14 10 0 6 -9 10 -21 10 -11
0 -17 -4 -14 -10z"/>
<path d="M903 997 c0 -9 9 -12 24 -9 13 2 23 8 23 13 0 5 -10 9 -23 9 -13 0
-24 -6 -24 -13z"/>
<path d="M1030 760 c0 -12 8 -24 18 -27 9 -4 26 -15 36 -25 26 -23 36 -23 36
2 0 11 5 20 12 20 18 0 7 7 -49 29 -53 21 -53 21 -53 1z"/>
<path d="M2675 731 c-19 -8 -18 -9 5 -13 17 -4 12 -6 -17 -7 -36 -1 -40 -4
-36 -21 4 -13 0 -20 -10 -20 -17 0 -43 -28 -34 -37 4 -3 23 2 44 12 20 10 57
19 81 21 24 1 46 5 49 8 9 9 -19 37 -32 32 -7 -2 -12 3 -11 11 1 19 -13 24
-39 14z"/>
<path d="M1351 704 c-11 -13 -10 -18 5 -30 37 -29 54 -35 70 -26 14 8 12 12
-10 29 -14 12 -26 26 -26 32 0 16 -23 13 -39 -5z"/>
<path d="M1405 710 c-3 -5 -1 -10 4 -10 6 0 11 5 11 10 0 6 -2 10 -4 10 -3 0
-8 -4 -11 -10z"/>
<path d="M2779 711 c7 -5 10 -14 7 -20 -4 -6 -5 -11 -2 -11 3 0 10 8 15 18 8
14 5 18 -12 19 -16 2 -18 0 -8 -6z"/>
<path d="M2445 685 c0 -30 24 -33 81 -9 34 15 37 18 19 25 -11 4 -38 8 -60 8
-36 1 -40 -1 -40 -24z"/>
<path d="M1241 664 c0 -11 3 -14 6 -6 3 7 2 16 -1 19 -3 4 -6 -2 -5 -13z"/>
<path d="M2788 673 c-10 -2 -18 -11 -18 -19 0 -11 5 -11 25 -2 14 6 25 15 25
20 0 8 -4 9 -32 1z"/>
<path d="M1120 650 c0 -5 5 -10 10 -10 6 0 10 5 10 10 0 6 -4 10 -10 10 -5 0
-10 -4 -10 -10z"/>
<path d="M1270 640 c0 -11 7 -23 15 -27 26 -9 30 6 7 27 l-22 21 0 -21z"/>
<path d="M2716 621 c-4 -5 -2 -12 3 -15 5 -4 12 -2 15 3 4 5 2 12 -3 15 -5 4
-12 2 -15 -3z"/>
<path d="M2405 596 c-44 -12 -96 -32 -115 -43 -70 -42 -201 -66 -360 -65 -164
1 -199 8 -445 91 -126 43 -144 40 -62 -13 93 -60 214 -86 436 -93 164 -6 246
1 416 34 44 9 95 18 113 21 17 2 32 8 32 13 0 5 6 9 13 9 6 1 30 16 52 35 48
42 37 43 -80 11z"/>
<path d="M2605 582 c-17 -11 -62 -29 -100 -42 -39 -12 -77 -29 -85 -36 -32
-27 -160 -74 -261 -94 -145 -30 -372 -24 -499 13 -132 39 -292 98 -308 113
-29 30 -122 62 -122 43 0 -5 4 -9 10 -9 5 0 27 -15 47 -33 21 -19 57 -44 81
-58 33 -18 39 -25 27 -29 -14 -5 -11 -11 16 -31 140 -105 523 -140 806 -74 29
6 50 8 47 3 -9 -14 15 -9 88 17 116 42 168 77 139 94 -8 6 -2 12 21 21 33 14
140 95 146 111 6 15 -21 10 -53 -9z m-276 -177 c-3 -2 -52 -14 -110 -26 -85
-18 -138 -22 -289 -22 -104 0 -205 5 -230 11 l-45 11 49 -4 c207 -20 380 -14
531 20 64 14 101 18 94 10z m-682 -21 c-3 -3 -12 -4 -19 -1 -8 3 -5 6 6 6 11
1 17 -2 13 -5z"/>
<path d="M1680 550 c0 -14 161 -33 260 -31 179 4 175 16 -5 16 -110 0 -195 5
-217 12 -21 6 -38 8 -38 3z"/>
<path d="M1520 495 c0 -8 63 -31 136 -50 66 -18 95 -20 314 -24 108 -3 208 11
288 39 67 24 79 34 32 26 -19 -3 -57 -8 -85 -12 -27 -4 -59 -9 -70 -11 -44 -9
-432 -9 -460 -1 -104 32 -155 43 -155 33z"/>
<path d="M28 283 c7 -3 16 -2 19 1 4 3 -2 6 -13 5 -11 0 -14 -3 -6 -6z"/>
<path d="M890 65 c0 -8 5 -15 10 -15 6 0 10 7 10 15 0 8 -4 15 -10 15 -5 0
-10 -7 -10 -15z"/>
</g>
</svg>
